<svg width="16" height="16" viewBox="0 0 16 16" fill="none" xmlns="http://www.w3.org/2000/svg">
<g clip-path="url(#clip0_4049_21181)">
<path d="M3.33301 8.66667C3.33301 9.2795 3.45371 9.88634 3.68824 10.4525C3.92276 11.0187 4.2665 11.5332 4.69984 11.9665C5.13318 12.3998 5.64763 12.7436 6.21382 12.9781C6.78 13.2126 7.38684 13.3333 7.99967 13.3333C8.61251 13.3333 9.21934 13.2126 9.78553 12.9781C10.3517 12.7436 10.8662 12.3998 11.2995 11.9665C11.7328 11.5332 12.0766 11.0187 12.3111 10.4525C12.5456 9.88634 12.6663 9.2795 12.6663 8.66667C12.6663 8.05383 12.5456 7.447 12.3111 6.88081C12.0766 6.31462 11.7328 5.80018 11.2995 5.36684C10.8662 4.9335 10.3517 4.58975 9.78553 4.35523C9.21934 4.12071 8.61251 4 7.99967 4C7.38684 4 6.78 4.12071 6.21382 4.35523C5.64763 4.58975 5.13318 4.9335 4.69984 5.36684C4.2665 5.80018 3.92276 6.31462 3.68824 6.88081C3.45371 7.447 3.33301 8.05383 3.33301 8.66667Z" stroke="#8992A3" stroke-linecap="round" stroke-linejoin="round"/>
<path d="M8 6.66699V8.66699H9.33333" stroke="#8992A3" stroke-linecap="round" stroke-linejoin="round"/>
<path d="M4.66634 2.66699L2.83301 4.00033" stroke="#8992A3" stroke-linecap="round" stroke-linejoin="round"/>
<path d="M11.333 2.66699L13.1663 4.00033" stroke="#8992A3" stroke-linecap="round" stroke-linejoin="round"/>
</g>
<defs>
<clipPath id="clip0_4049_21181">
<rect width="16" height="16" fill="white"/>
</clipPath>
</defs>
</svg>
