<svg width="24" height="24" viewBox="0 0 24 24" fill="none" xmlns="http://www.w3.org/2000/svg">
<g clip-path="url(#clip0_323_1118)">
<path d="M14 3V7C14 7.26522 14.1054 7.51957 14.2929 7.70711C14.4804 7.89464 14.7348 8 15 8H19" stroke="#363C46" stroke-linecap="round" stroke-linejoin="round"/>
<path d="M17 21H7C6.46957 21 5.96086 20.7893 5.58579 20.4142C5.21071 20.0391 5 19.5304 5 19V5C5 4.46957 5.21071 3.96086 5.58579 3.58579C5.96086 3.21071 6.46957 3 7 3H14L19 8V19C19 19.5304 18.7893 20.0391 18.4142 20.4142C18.0391 20.7893 17.5304 21 17 21Z" stroke="#363C46" stroke-linecap="round" stroke-linejoin="round"/>
<path d="M7.90723 11.7168C8.45996 11.7168 8.86328 11.8359 9.11719 12.0742C9.37109 12.3105 9.49805 12.6367 9.49805 13.0527C9.49805 13.2402 9.46973 13.4199 9.41309 13.5918C9.35645 13.7617 9.26367 13.9131 9.13477 14.0459C9.00781 14.1787 8.83789 14.2842 8.625 14.3623C8.41211 14.4385 8.14941 14.4766 7.83691 14.4766H7.44727V16H6.53906V11.7168H7.90723ZM7.86035 12.4609H7.44727V13.7324H7.74609C7.91602 13.7324 8.06348 13.71 8.18848 13.665C8.31348 13.6201 8.41016 13.5498 8.47852 13.4541C8.54688 13.3584 8.58105 13.2354 8.58105 13.085C8.58105 12.874 8.52246 12.7178 8.40527 12.6162C8.28809 12.5127 8.10645 12.4609 7.86035 12.4609ZM13.8604 13.8174C13.8604 14.2998 13.7676 14.7031 13.582 15.0273C13.3984 15.3496 13.1318 15.5928 12.7822 15.7568C12.4326 15.9189 12.0117 16 11.5195 16H10.3066V11.7168H11.6514C12.1006 11.7168 12.4902 11.7969 12.8203 11.957C13.1504 12.1152 13.4062 12.3506 13.5879 12.6631C13.7695 12.9736 13.8604 13.3584 13.8604 13.8174ZM12.917 13.8408C12.917 13.5244 12.8701 13.2646 12.7764 13.0615C12.6846 12.8564 12.5479 12.7051 12.3662 12.6074C12.1865 12.5098 11.9639 12.4609 11.6982 12.4609H11.2148V15.25H11.6045C12.0479 15.25 12.377 15.1318 12.5918 14.8955C12.8086 14.6592 12.917 14.3076 12.917 13.8408ZM15.6416 16H14.748V11.7168H17.2031V12.4609H15.6416V13.5654H17.0947V14.3066H15.6416V16Z" fill="#363C46"/>
</g>
<defs>
<clipPath id="clip0_323_1118">
<rect width="24" height="24" fill="white"/>
</clipPath>
</defs>
</svg>
