<svg width="40" height="40" viewBox="0 0 40 40" fill="none" xmlns="http://www.w3.org/2000/svg">
<g clip-path="url(#clip0_2847_16080)">
<path d="M23.334 5V11.6667C23.334 12.1087 23.5096 12.5326 23.8221 12.8452C24.1347 13.1577 24.5586 13.3333 25.0007 13.3333H31.6673" stroke="#363C46" stroke-linecap="round" stroke-linejoin="round"/>
<path d="M28.334 35H11.6673C10.7833 35 9.93542 34.6488 9.31029 34.0237C8.68517 33.3986 8.33398 32.5507 8.33398 31.6667V8.33333C8.33398 7.44928 8.68517 6.60143 9.31029 5.97631C9.93542 5.35119 10.7833 5 11.6673 5H23.334L31.6673 13.3333V31.6667C31.6673 32.5507 31.3161 33.3986 30.691 34.0237C30.0659 34.6488 29.218 35 28.334 35Z" stroke="#363C46" stroke-linecap="round" stroke-linejoin="round"/>
<path d="M16.1562 21.3833C16.709 21.3833 17.1123 21.5024 17.3662 21.7407C17.6201 21.9771 17.7471 22.3032 17.7471 22.7192C17.7471 22.9067 17.7188 23.0864 17.6621 23.2583C17.6055 23.4282 17.5127 23.5796 17.3838 23.7124C17.2568 23.8452 17.0869 23.9507 16.874 24.0288C16.6611 24.105 16.3984 24.1431 16.0859 24.1431H15.6963V25.6665H14.7881V21.3833H16.1562ZM16.1094 22.1274H15.6963V23.3989H15.9951C16.165 23.3989 16.3125 23.3765 16.4375 23.3315C16.5625 23.2866 16.6592 23.2163 16.7275 23.1206C16.7959 23.0249 16.8301 22.9019 16.8301 22.7515C16.8301 22.5405 16.7715 22.3843 16.6543 22.2827C16.5371 22.1792 16.3555 22.1274 16.1094 22.1274ZM22.1094 23.4839C22.1094 23.9663 22.0166 24.3696 21.8311 24.6938C21.6475 25.0161 21.3809 25.2593 21.0312 25.4233C20.6816 25.5854 20.2607 25.6665 19.7686 25.6665H18.5557V21.3833H19.9004C20.3496 21.3833 20.7393 21.4634 21.0693 21.6235C21.3994 21.7817 21.6553 22.0171 21.8369 22.3296C22.0186 22.6401 22.1094 23.0249 22.1094 23.4839ZM21.166 23.5073C21.166 23.1909 21.1191 22.9312 21.0254 22.728C20.9336 22.5229 20.7969 22.3716 20.6152 22.2739C20.4355 22.1763 20.2129 22.1274 19.9473 22.1274H19.4639V24.9165H19.8535C20.2969 24.9165 20.626 24.7983 20.8408 24.562C21.0576 24.3257 21.166 23.9741 21.166 23.5073ZM23.8906 25.6665H22.9971V21.3833H25.4521V22.1274H23.8906V23.2319H25.3438V23.9731H23.8906V25.6665Z" fill="#363C46"/>
</g>
<defs>
<clipPath id="clip0_2847_16080">
<rect width="40" height="40" fill="white"/>
</clipPath>
</defs>
</svg>