
<svg width="40" height="40" viewBox="0 0 40 40" fill="none" xmlns="http://www.w3.org/2000/svg">
<g clip-path="url(#clip0_2847_16112)">
<path d="M23.334 5V11.6667C23.334 12.1087 23.5096 12.5326 23.8221 12.8452C24.1347 13.1577 24.5586 13.3333 25.0007 13.3333H31.6673" stroke="#363C46" stroke-linecap="round" stroke-linejoin="round"/>
<path d="M28.334 35H11.6673C10.7833 35 9.93542 34.6488 9.31029 34.0237C8.68517 33.3986 8.33398 32.5507 8.33398 31.6667V8.33333C8.33398 7.44928 8.68517 6.60143 9.31029 5.97631C9.93542 5.35119 10.7833 5 11.6673 5H23.334L31.6673 13.3333V31.6667C31.6673 32.5507 31.3161 33.3986 30.691 34.0237C30.0659 34.6488 29.218 35 28.334 35Z" stroke="#363C46" stroke-linecap="round" stroke-linejoin="round"/>
<path d="M15.5703 23.4839C15.5703 23.9663 15.4775 24.3696 15.292 24.6938C15.1084 25.0161 14.8418 25.2593 14.4922 25.4233C14.1426 25.5854 13.7217 25.6665 13.2295 25.6665H12.0166V21.3833H13.3613C13.8105 21.3833 14.2002 21.4634 14.5303 21.6235C14.8604 21.7817 15.1162 22.0171 15.2979 22.3296C15.4795 22.6401 15.5703 23.0249 15.5703 23.4839ZM14.627 23.5073C14.627 23.1909 14.5801 22.9312 14.4863 22.728C14.3945 22.5229 14.2578 22.3716 14.0762 22.2739C13.8965 22.1763 13.6738 22.1274 13.4082 22.1274H12.9248V24.9165H13.3145C13.7578 24.9165 14.0869 24.7983 14.3018 24.562C14.5186 24.3257 14.627 23.9741 14.627 23.5073ZM20.3457 23.519C20.3457 23.8491 20.3047 24.1499 20.2227 24.4214C20.1406 24.6909 20.0156 24.9233 19.8477 25.1187C19.6816 25.314 19.4707 25.4644 19.2148 25.5698C18.959 25.6733 18.6562 25.7251 18.3066 25.7251C17.957 25.7251 17.6543 25.6733 17.3984 25.5698C17.1426 25.4644 16.9307 25.314 16.7627 25.1187C16.5967 24.9233 16.4727 24.6899 16.3906 24.4185C16.3086 24.147 16.2676 23.8452 16.2676 23.5132C16.2676 23.0698 16.3398 22.6841 16.4844 22.356C16.6309 22.0259 16.8555 21.77 17.1582 21.5884C17.4609 21.4067 17.8457 21.3159 18.3125 21.3159C18.7773 21.3159 19.1592 21.4067 19.458 21.5884C19.7588 21.77 19.9814 22.0259 20.126 22.356C20.2725 22.686 20.3457 23.0737 20.3457 23.519ZM17.2197 23.519C17.2197 23.8179 17.2568 24.0757 17.3311 24.2925C17.4072 24.5073 17.5254 24.6733 17.6855 24.7905C17.8457 24.9058 18.0527 24.9634 18.3066 24.9634C18.5645 24.9634 18.7734 24.9058 18.9336 24.7905C19.0938 24.6733 19.21 24.5073 19.2822 24.2925C19.3564 24.0757 19.3936 23.8179 19.3936 23.519C19.3936 23.0698 19.3096 22.7163 19.1416 22.4585C18.9736 22.2007 18.6973 22.0718 18.3125 22.0718C18.0566 22.0718 17.8477 22.1304 17.6855 22.2476C17.5254 22.3628 17.4072 22.5288 17.3311 22.7456C17.2568 22.9604 17.2197 23.2183 17.2197 23.519ZM23.0527 22.0776C22.8789 22.0776 22.7246 22.1118 22.5898 22.1802C22.457 22.2466 22.3447 22.3433 22.2529 22.4702C22.1631 22.5972 22.0947 22.7505 22.0479 22.9302C22.001 23.1099 21.9775 23.312 21.9775 23.5366C21.9775 23.8394 22.0146 24.0981 22.0889 24.313C22.165 24.5259 22.2822 24.689 22.4404 24.8022C22.5986 24.9136 22.8027 24.9692 23.0527 24.9692C23.2266 24.9692 23.4004 24.9497 23.5742 24.9106C23.75 24.8716 23.9404 24.8159 24.1455 24.7437V25.5054C23.9561 25.5835 23.7695 25.6392 23.5859 25.6724C23.4023 25.7075 23.1963 25.7251 22.9678 25.7251C22.5264 25.7251 22.1631 25.6343 21.8779 25.4526C21.5947 25.269 21.3848 25.0132 21.248 24.6851C21.1113 24.355 21.043 23.9702 21.043 23.5308C21.043 23.2065 21.0869 22.9097 21.1748 22.6401C21.2627 22.3706 21.3916 22.1372 21.5615 21.9399C21.7314 21.7427 21.9414 21.5903 22.1914 21.4829C22.4414 21.3755 22.7285 21.3218 23.0527 21.3218C23.2656 21.3218 23.4785 21.3491 23.6914 21.4038C23.9062 21.4565 24.1113 21.5298 24.3066 21.6235L24.0137 22.3618C23.8535 22.2856 23.6924 22.2192 23.5303 22.1626C23.3682 22.106 23.209 22.0776 23.0527 22.0776ZM28.5225 25.6665H27.4854L26.4893 24.0464L25.4932 25.6665H24.5205L25.9414 23.4575L24.6113 21.3833H25.6133L26.5361 22.9243L27.4414 21.3833H28.4199L27.0752 23.5073L28.5225 25.6665Z" fill="#363C46"/>
</g>
<defs>
<clipPath id="clip0_2847_16112">
<rect width="40" height="40" fill="white"/>
</clipPath>
</defs>
</svg>
