
<svg width="40" height="40" viewBox="0 0 40 40" fill="none" xmlns="http://www.w3.org/2000/svg">
<g clip-path="url(#clip0_2847_16192)">
<path d="M23.334 5.00049V11.6672C23.334 12.1092 23.5096 12.5331 23.8221 12.8457C24.1347 13.1582 24.5586 13.3338 25.0007 13.3338H31.6673" stroke="#363C46" stroke-linecap="round" stroke-linejoin="round"/>
<path d="M28.334 35.0005H11.6673C10.7833 35.0005 9.93542 34.6493 9.31029 34.0242C8.68517 33.3991 8.33398 32.5512 8.33398 31.6672V8.33382C8.33398 7.44977 8.68517 6.60192 9.31029 5.9768C9.93542 5.35168 10.7833 5.00049 11.6673 5.00049H23.334L31.6673 13.3338V31.6672C31.6673 32.5512 31.3161 33.3991 30.691 34.0242C30.0659 34.6493 29.218 35.0005 28.334 35.0005Z" stroke="#363C46" stroke-linecap="round" stroke-linejoin="round"/>
<path d="M15.04 26.9268C14.9229 26.9268 14.8203 26.9199 14.7324 26.9062C14.6426 26.8945 14.5664 26.8799 14.5039 26.8623V26.1064C14.5664 26.1201 14.6338 26.1328 14.7061 26.1445C14.7764 26.1582 14.8516 26.165 14.9316 26.165C15.0371 26.165 15.1318 26.1445 15.2158 26.1035C15.2998 26.0645 15.3662 25.9893 15.415 25.8779C15.4639 25.7666 15.4883 25.6064 15.4883 25.3975V21.3838H16.3965V25.3916C16.3965 25.7588 16.3389 26.0547 16.2236 26.2793C16.1104 26.5059 15.9512 26.6699 15.7461 26.7715C15.543 26.875 15.3076 26.9268 15.04 26.9268ZM18.8428 21.3838C19.3955 21.3838 19.7988 21.5029 20.0527 21.7412C20.3066 21.9775 20.4336 22.3037 20.4336 22.7197C20.4336 22.9072 20.4053 23.0869 20.3486 23.2588C20.292 23.4287 20.1992 23.5801 20.0703 23.7129C19.9434 23.8457 19.7734 23.9512 19.5605 24.0293C19.3477 24.1055 19.085 24.1436 18.7725 24.1436H18.3828V25.667H17.4746V21.3838H18.8428ZM18.7959 22.1279H18.3828V23.3994H18.6816C18.8516 23.3994 18.999 23.377 19.124 23.332C19.249 23.2871 19.3457 23.2168 19.4141 23.1211C19.4824 23.0254 19.5166 22.9023 19.5166 22.752C19.5166 22.541 19.458 22.3848 19.3408 22.2832C19.2236 22.1797 19.042 22.1279 18.7959 22.1279ZM22.8682 23.2617H24.5674V25.4824C24.3428 25.5566 24.1094 25.6162 23.8672 25.6611C23.625 25.7041 23.3506 25.7256 23.0439 25.7256C22.6182 25.7256 22.2568 25.6416 21.96 25.4736C21.6631 25.3057 21.4375 25.0576 21.2832 24.7295C21.1289 24.4014 21.0518 23.998 21.0518 23.5195C21.0518 23.0703 21.1377 22.6816 21.3096 22.3535C21.4834 22.0254 21.7363 21.7715 22.0684 21.5918C22.4023 21.4121 22.8096 21.3223 23.29 21.3223C23.5166 21.3223 23.7402 21.3467 23.9609 21.3955C24.1816 21.4443 24.3818 21.5078 24.5615 21.5859L24.2598 22.3125C24.1289 22.2461 23.9795 22.1904 23.8115 22.1455C23.6436 22.1006 23.4678 22.0781 23.2842 22.0781C23.0205 22.0781 22.791 22.1387 22.5957 22.2598C22.4023 22.3809 22.252 22.5508 22.1445 22.7695C22.0391 22.9863 21.9863 23.2422 21.9863 23.5371C21.9863 23.8164 22.0244 24.0645 22.1006 24.2812C22.1768 24.4961 22.2969 24.665 22.4609 24.7881C22.625 24.9092 22.8389 24.9697 23.1025 24.9697C23.2314 24.9697 23.3398 24.9639 23.4277 24.9521C23.5176 24.9385 23.6016 24.9248 23.6797 24.9111V24.0176H22.8682V23.2617Z" fill="#363C46"/>
</g>
<defs>
<clipPath id="clip0_2847_16192">
<rect width="40" height="40" fill="white" transform="translate(0 0.000488281)"/>
</clipPath>
</defs>
</svg>
