
<svg width="40" height="40" viewBox="0 0 24 24" fill="none" xmlns="http://www.w3.org/2000/svg" stroke-width="0.5">
<g clip-path="url(#clip0_858_446)">
<path d="M14 3V7C14 7.26522 14.1054 7.51957 14.2929 7.70711C14.4804 7.89464 14.7348 8 15 8H19" stroke="#363C46" stroke-linecap="round" stroke-linejoin="round" />
<path d="M17 21H7C6.46957 21 5.96086 20.7893 5.58579 20.4142C5.21071 20.0391 5 19.5304 5 19V5C5 4.46957 5.21071 3.96086 5.58579 3.58579C5.96086 3.21071 6.46957 3 7 3H14L19 8V19C19 19.5304 18.7893 20.0391 18.4142 20.4142C18.0391 20.7893 17.5304 21 17 21Z" stroke="#363C46" stroke-linecap="round" stroke-linejoin="round"/>
<path d="M8.93945 13.1445C9.30794 13.1445 9.57682 13.224 9.74609 13.3828C9.91536 13.5404 10 13.7578 10 14.0352C10 14.1602 9.98112 14.2799 9.94336 14.3945C9.9056 14.5078 9.84375 14.6087 9.75781 14.6973C9.67318 14.7858 9.5599 14.8561 9.41797 14.9082C9.27604 14.959 9.10091 14.9844 8.89258 14.9844H8.63281V16H8.02734V13.1445H8.93945ZM8.9082 13.6406H8.63281V14.4883H8.83203C8.94531 14.4883 9.04362 14.4733 9.12695 14.4434C9.21029 14.4134 9.27474 14.3665 9.32031 14.3027C9.36589 14.2389 9.38867 14.1569 9.38867 14.0566C9.38867 13.916 9.34961 13.8118 9.27148 13.7441C9.19336 13.6751 9.07227 13.6406 8.9082 13.6406Z" fill="#363C46"/>
<path d="M13.0723 16H12.3027L11.0605 13.8398H11.043C11.0482 13.9297 11.0527 14.0202 11.0566 14.1113C11.0605 14.2025 11.0645 14.2936 11.0684 14.3848C11.0723 14.4746 11.0762 14.5651 11.0801 14.6562V16H10.5391V13.1445H11.3027L12.543 15.2832H12.5566C12.554 15.1947 12.5508 15.1068 12.5469 15.0195C12.543 14.9323 12.5391 14.8451 12.5352 14.7578C12.5326 14.6706 12.5299 14.5833 12.5273 14.4961V13.1445H13.0723V16Z" fill="#363C46"/>
<path d="M14.877 14.3965H16.0098V15.877C15.86 15.9264 15.7044 15.9661 15.543 15.9961C15.3815 16.0247 15.1986 16.0391 14.9941 16.0391C14.7103 16.0391 14.4694 15.9831 14.2715 15.8711C14.0736 15.7591 13.9232 15.5938 13.8203 15.375C13.7174 15.1562 13.666 14.8874 13.666 14.5684C13.666 14.2689 13.7233 14.0098 13.8379 13.791C13.9538 13.5723 14.1224 13.403 14.3438 13.2832C14.5664 13.1634 14.8379 13.1035 15.1582 13.1035C15.3092 13.1035 15.4583 13.1198 15.6055 13.1523C15.7526 13.1849 15.8861 13.2272 16.0059 13.2793L15.8047 13.7637C15.7174 13.7194 15.6178 13.6823 15.5059 13.6523C15.3939 13.6224 15.2767 13.6074 15.1543 13.6074C14.9785 13.6074 14.8255 13.6478 14.6953 13.7285C14.5664 13.8092 14.4661 13.9225 14.3945 14.0684C14.3242 14.2129 14.2891 14.3835 14.2891 14.5801C14.2891 14.7663 14.3145 14.9316 14.3652 15.0762C14.416 15.2194 14.4961 15.332 14.6055 15.4141C14.7148 15.4948 14.8574 15.5352 15.0332 15.5352C15.1191 15.5352 15.1914 15.5312 15.25 15.5234C15.3099 15.5143 15.3659 15.5052 15.418 15.4961V14.9004H14.877V14.3965Z" fill="#363C46"/>
</g>
<defs>
<clipPath id="clip0_858_446">
<rect width="24" height="24" fill="white"/>
</clipPath>
</defs>
</svg>
