
<svg width="40" height="40" viewBox="0 0 40 40" fill="none" xmlns="http://www.w3.org/2000/svg">
<g clip-path="url(#clip0_2847_16160)">
<path d="M23.334 5V11.6667C23.334 12.1087 23.5096 12.5326 23.8221 12.8452C24.1347 13.1577 24.5586 13.3333 25.0007 13.3333H31.6673" stroke="#363C46" stroke-linecap="round" stroke-linejoin="round"/>
<path d="M28.334 35H11.6673C10.7833 35 9.93542 34.6488 9.31029 34.0237C8.68517 33.3986 8.33398 32.5507 8.33398 31.6667V8.33333C8.33398 7.44928 8.68517 6.60143 9.31029 5.97631C9.93542 5.35119 10.7833 5 11.6673 5H23.334L31.6673 13.3333V31.6667C31.6673 32.5507 31.3161 33.3986 30.691 34.0237C30.0659 34.6488 29.218 35 28.334 35Z" stroke="#363C46" stroke-linecap="round" stroke-linejoin="round"/>
<path d="M16.4023 21.3833C16.9551 21.3833 17.3584 21.5024 17.6123 21.7407C17.8662 21.9771 17.9932 22.3032 17.9932 22.7192C17.9932 22.9067 17.9648 23.0864 17.9082 23.2583C17.8516 23.4282 17.7588 23.5796 17.6299 23.7124C17.5029 23.8452 17.333 23.9507 17.1201 24.0288C16.9072 24.105 16.6445 24.1431 16.332 24.1431H15.9424V25.6665H15.0342V21.3833H16.4023ZM16.3555 22.1274H15.9424V23.3989H16.2412C16.4111 23.3989 16.5586 23.3765 16.6836 23.3315C16.8086 23.2866 16.9053 23.2163 16.9736 23.1206C17.042 23.0249 17.0762 22.9019 17.0762 22.7515C17.0762 22.5405 17.0176 22.3843 16.9004 22.2827C16.7832 22.1792 16.6016 22.1274 16.3555 22.1274ZM20.1699 21.3833C20.7227 21.3833 21.126 21.5024 21.3799 21.7407C21.6338 21.9771 21.7607 22.3032 21.7607 22.7192C21.7607 22.9067 21.7324 23.0864 21.6758 23.2583C21.6191 23.4282 21.5264 23.5796 21.3975 23.7124C21.2705 23.8452 21.1006 23.9507 20.8877 24.0288C20.6748 24.105 20.4121 24.1431 20.0996 24.1431H19.71V25.6665H18.8018V21.3833H20.1699ZM20.123 22.1274H19.71V23.3989H20.0088C20.1787 23.3989 20.3262 23.3765 20.4512 23.3315C20.5762 23.2866 20.6729 23.2163 20.7412 23.1206C20.8096 23.0249 20.8438 22.9019 20.8438 22.7515C20.8438 22.5405 20.7852 22.3843 20.668 22.2827C20.5508 22.1792 20.3691 22.1274 20.123 22.1274ZM24.2217 25.6665H23.3135V22.1392H22.1504V21.3833H25.3848V22.1392H24.2217V25.6665Z" fill="#363C46"/>
</g>
<defs>
<clipPath id="clip0_2847_16160">
<rect width="40" height="40" fill="white"/>
</clipPath>
</defs>
</svg>
