<svg width="40" height="40" viewBox="0 0 40 40" fill="none" xmlns="http://www.w3.org/2000/svg">
<g clip-path="url(#clip0_2847_16176)">
<path d="M23.334 5V11.6667C23.334 12.1087 23.5096 12.5326 23.8221 12.8452C24.1347 13.1577 24.5586 13.3333 25.0007 13.3333H31.6673" stroke="#363C46" stroke-linecap="round" stroke-linejoin="round"/>
<path d="M28.334 35H11.6673C10.7833 35 9.93542 34.6488 9.31029 34.0237C8.68517 33.3986 8.33398 32.5507 8.33398 31.6667V8.33333C8.33398 7.44928 8.68517 6.60143 9.31029 5.97631C9.93542 5.35119 10.7833 5 11.6673 5H23.334L31.6673 13.3333V31.6667C31.6673 32.5507 31.3161 33.3986 30.691 34.0237C30.0659 34.6488 29.218 35 28.334 35Z" stroke="#363C46" stroke-linecap="round" stroke-linejoin="round"/>
<path d="M14.4014 21.3833C14.9541 21.3833 15.3574 21.5024 15.6113 21.7407C15.8652 21.9771 15.9922 22.3032 15.9922 22.7192C15.9922 22.9067 15.9639 23.0864 15.9072 23.2583C15.8506 23.4282 15.7578 23.5796 15.6289 23.7124C15.502 23.8452 15.332 23.9507 15.1191 24.0288C14.9062 24.105 14.6436 24.1431 14.3311 24.1431H13.9414V25.6665H13.0332V21.3833H14.4014ZM14.3545 22.1274H13.9414V23.3989H14.2402C14.4102 23.3989 14.5576 23.3765 14.6826 23.3315C14.8076 23.2866 14.9043 23.2163 14.9727 23.1206C15.041 23.0249 15.0752 22.9019 15.0752 22.7515C15.0752 22.5405 15.0166 22.3843 14.8994 22.2827C14.7822 22.1792 14.6006 22.1274 14.3545 22.1274ZM18.1689 21.3833C18.7217 21.3833 19.125 21.5024 19.3789 21.7407C19.6328 21.9771 19.7598 22.3032 19.7598 22.7192C19.7598 22.9067 19.7314 23.0864 19.6748 23.2583C19.6182 23.4282 19.5254 23.5796 19.3965 23.7124C19.2695 23.8452 19.0996 23.9507 18.8867 24.0288C18.6738 24.105 18.4111 24.1431 18.0986 24.1431H17.709V25.6665H16.8008V21.3833H18.1689ZM18.1221 22.1274H17.709V23.3989H18.0078C18.1777 23.3989 18.3252 23.3765 18.4502 23.3315C18.5752 23.2866 18.6719 23.2163 18.7402 23.1206C18.8086 23.0249 18.8428 22.9019 18.8428 22.7515C18.8428 22.5405 18.7842 22.3843 18.667 22.2827C18.5498 22.1792 18.3682 22.1274 18.1221 22.1274ZM22.2207 25.6665H21.3125V22.1392H20.1494V21.3833H23.3838V22.1392H22.2207V25.6665ZM27.5059 25.6665H26.4688L25.4727 24.0464L24.4766 25.6665H23.5039L24.9248 23.4575L23.5947 21.3833H24.5967L25.5195 22.9243L26.4248 21.3833H27.4033L26.0586 23.5073L27.5059 25.6665Z" fill="#363C46"/>
</g>
<defs>
<clipPath id="clip0_2847_16176">
<rect width="40" height="40" fill="white"/>
</clipPath>
</defs>
</svg>
