
<svg width="40" height="40" viewBox="0 0 40 40" fill="none" xmlns="http://www.w3.org/2000/svg">
<g clip-path="url(#clip0_2847_16128)">
<path d="M23.334 5V11.6667C23.334 12.1087 23.5096 12.5326 23.8221 12.8452C24.1347 13.1577 24.5586 13.3333 25.0007 13.3333H31.6673" stroke="#363C46" stroke-linecap="round" stroke-linejoin="round"/>
<path d="M28.334 35H11.6673C10.7833 35 9.93542 34.6488 9.31029 34.0237C8.68517 33.3986 8.33398 32.5507 8.33398 31.6667V8.33333C8.33398 7.44928 8.68517 6.60143 9.31029 5.97631C9.93542 5.35119 10.7833 5 11.6673 5H23.334L31.6673 13.3333V31.6667C31.6673 32.5507 31.3161 33.3986 30.691 34.0237C30.0659 34.6488 29.218 35 28.334 35Z" stroke="#363C46" stroke-linecap="round" stroke-linejoin="round"/>
<path d="M18.6523 25.6665H17.6152L16.6191 24.0464L15.623 25.6665H14.6504L16.0713 23.4575L14.7412 21.3833H15.7432L16.666 22.9243L17.5713 21.3833H18.5498L17.2051 23.5073L18.6523 25.6665ZM19.1914 25.6665V21.3833H20.0996V24.9165H21.8369V25.6665H19.1914ZM25.1123 24.4771C25.1123 24.731 25.0508 24.9517 24.9277 25.1392C24.8047 25.3267 24.625 25.4712 24.3887 25.5728C24.1543 25.6743 23.8691 25.7251 23.5332 25.7251C23.3848 25.7251 23.2393 25.7153 23.0967 25.6958C22.9561 25.6763 22.8203 25.6479 22.6895 25.6108C22.5605 25.5718 22.4375 25.5239 22.3203 25.4673V24.6235C22.5234 24.7134 22.7344 24.7944 22.9531 24.8667C23.1719 24.939 23.3887 24.9751 23.6035 24.9751C23.752 24.9751 23.8711 24.9556 23.9609 24.9165C24.0527 24.8774 24.1191 24.8237 24.1602 24.7554C24.2012 24.687 24.2217 24.6089 24.2217 24.521C24.2217 24.4136 24.1855 24.3218 24.1133 24.2456C24.041 24.1694 23.9414 24.0981 23.8145 24.0317C23.6895 23.9653 23.5479 23.894 23.3896 23.8179C23.29 23.771 23.1816 23.7144 23.0645 23.6479C22.9473 23.5796 22.8359 23.4966 22.7305 23.3989C22.625 23.3013 22.5381 23.1831 22.4697 23.0444C22.4033 22.9038 22.3701 22.7358 22.3701 22.5405C22.3701 22.2847 22.4287 22.0659 22.5459 21.8843C22.6631 21.7026 22.8301 21.564 23.0469 21.4683C23.2656 21.3706 23.5234 21.3218 23.8203 21.3218C24.043 21.3218 24.2549 21.3481 24.4561 21.4009C24.6592 21.4517 24.8711 21.5259 25.0918 21.6235L24.7988 22.3296C24.6016 22.2495 24.4248 22.188 24.2686 22.145C24.1123 22.1001 23.9531 22.0776 23.791 22.0776C23.6777 22.0776 23.5811 22.0962 23.501 22.1333C23.4209 22.1685 23.3604 22.2192 23.3193 22.2856C23.2783 22.3501 23.2578 22.4253 23.2578 22.5112C23.2578 22.6128 23.2871 22.6987 23.3457 22.769C23.4062 22.8374 23.4961 22.9038 23.6152 22.9683C23.7363 23.0327 23.8867 23.1079 24.0664 23.1938C24.2852 23.2974 24.4717 23.4058 24.626 23.519C24.7822 23.6304 24.9023 23.7622 24.9863 23.9146C25.0703 24.0649 25.1123 24.2524 25.1123 24.4771Z" fill="#363C46"/>
</g>
<defs>
<clipPath id="clip0_2847_16128">
<rect width="40" height="40" fill="white"/>
</clipPath>
</defs>
</svg>
