
<svg width="40" height="40" viewBox="0 0 40 40" fill="none" xmlns="http://www.w3.org/2000/svg">
<g clip-path="url(#clip0_2847_16144)">
<path d="M23.334 5V11.6667C23.334 12.1087 23.5096 12.5326 23.8221 12.8452C24.1347 13.1577 24.5586 13.3333 25.0007 13.3333H31.6673" stroke="#363C46" stroke-linecap="round" stroke-linejoin="round"/>
<path d="M28.334 35H11.6673C10.7833 35 9.93542 34.6488 9.31029 34.0237C8.68517 33.3986 8.33398 32.5507 8.33398 31.6667V8.33333C8.33398 7.44928 8.68517 6.60143 9.31029 5.97631C9.93542 5.35119 10.7833 5 11.6673 5H23.334L31.6673 13.3333V31.6667C31.6673 32.5507 31.3161 33.3986 30.691 34.0237C30.0659 34.6488 29.218 35 28.334 35Z" stroke="#363C46" stroke-linecap="round" stroke-linejoin="round"/>
<path d="M16.6514 25.6665H15.6143L14.6182 24.0464L13.6221 25.6665H12.6494L14.0703 23.4575L12.7402 21.3833H13.7422L14.665 22.9243L15.5703 21.3833H16.5488L15.2041 23.5073L16.6514 25.6665ZM17.1904 25.6665V21.3833H18.0986V24.9165H19.8359V25.6665H17.1904ZM23.1113 24.4771C23.1113 24.731 23.0498 24.9517 22.9268 25.1392C22.8037 25.3267 22.624 25.4712 22.3877 25.5728C22.1533 25.6743 21.8682 25.7251 21.5322 25.7251C21.3838 25.7251 21.2383 25.7153 21.0957 25.6958C20.9551 25.6763 20.8193 25.6479 20.6885 25.6108C20.5596 25.5718 20.4365 25.5239 20.3193 25.4673V24.6235C20.5225 24.7134 20.7334 24.7944 20.9521 24.8667C21.1709 24.939 21.3877 24.9751 21.6025 24.9751C21.751 24.9751 21.8701 24.9556 21.96 24.9165C22.0518 24.8774 22.1182 24.8237 22.1592 24.7554C22.2002 24.687 22.2207 24.6089 22.2207 24.521C22.2207 24.4136 22.1846 24.3218 22.1123 24.2456C22.04 24.1694 21.9404 24.0981 21.8135 24.0317C21.6885 23.9653 21.5469 23.894 21.3887 23.8179C21.2891 23.771 21.1807 23.7144 21.0635 23.6479C20.9463 23.5796 20.835 23.4966 20.7295 23.3989C20.624 23.3013 20.5371 23.1831 20.4688 23.0444C20.4023 22.9038 20.3691 22.7358 20.3691 22.5405C20.3691 22.2847 20.4277 22.0659 20.5449 21.8843C20.6621 21.7026 20.8291 21.564 21.0459 21.4683C21.2646 21.3706 21.5225 21.3218 21.8193 21.3218C22.042 21.3218 22.2539 21.3481 22.4551 21.4009C22.6582 21.4517 22.8701 21.5259 23.0908 21.6235L22.7979 22.3296C22.6006 22.2495 22.4238 22.188 22.2676 22.145C22.1113 22.1001 21.9521 22.0776 21.79 22.0776C21.6768 22.0776 21.5801 22.0962 21.5 22.1333C21.4199 22.1685 21.3594 22.2192 21.3184 22.2856C21.2773 22.3501 21.2568 22.4253 21.2568 22.5112C21.2568 22.6128 21.2861 22.6987 21.3447 22.769C21.4053 22.8374 21.4951 22.9038 21.6143 22.9683C21.7354 23.0327 21.8857 23.1079 22.0654 23.1938C22.2842 23.2974 22.4707 23.4058 22.625 23.519C22.7812 23.6304 22.9014 23.7622 22.9854 23.9146C23.0693 24.0649 23.1113 24.2524 23.1113 24.4771ZM27.3506 25.6665H26.3135L25.3174 24.0464L24.3213 25.6665H23.3486L24.7695 23.4575L23.4395 21.3833H24.4414L25.3643 22.9243L26.2695 21.3833H27.248L25.9033 23.5073L27.3506 25.6665Z" fill="#363C46"/>
</g>
<defs>
<clipPath id="clip0_2847_16144">
<rect width="40" height="40" fill="white"/>
</clipPath>
</defs>
</svg>
