
<svg width="24" height="24" viewBox="0 0 24 24" fill="none" xmlns="http://www.w3.org/2000/svg">
<path fill-rule="evenodd" clip-rule="evenodd" d="M12 0.923065C5.9077 0.923065 0.92308 5.90768 0.92308 12C0.92308 18.0923 5.9077 23.0769 12 23.0769C18.0923 23.0769 23.0769 18.0923 23.0769 12C23.0769 5.90768 18.0923 0.923065 12 0.923065ZM3.69231 12C3.69231 7.43076 7.43077 3.6923 12 3.6923C13.8 3.6923 15.4615 4.24614 16.8 5.21537L5.21539 16.8C4.24616 15.4615 3.69231 13.8 3.69231 12ZM12 20.3077C10.2 20.3077 8.53847 19.7538 7.2 18.7846L18.7846 7.19999C19.7538 8.53845 20.3077 10.2 20.3077 12C20.3077 16.5692 16.5692 20.3077 12 20.3077Z" fill="white"/>
</svg>
