
<svg width="24" height="24" viewBox="0 0 24 24" fill="none" xmlns="http://www.w3.org/2000/svg">
<path fill-rule="evenodd" clip-rule="evenodd" d="M12 0.923096C5.86154 0.923096 0.92308 5.86156 0.92308 12C0.92308 18.1385 5.86154 23.0769 12 23.0769C18.1385 23.0769 23.0769 18.1385 23.0769 12C23.0769 5.86156 18.1385 0.923096 12 0.923096ZM12 6.50771C12.7846 6.50771 13.3846 7.10771 13.3846 7.89233C13.3846 8.67694 12.7846 9.27694 12 9.27694C11.2154 9.27694 10.6154 8.67694 10.6154 7.89233C10.6154 7.10771 11.2154 6.50771 12 6.50771ZM14.3077 16.2C14.3077 16.4308 14.1231 16.6154 13.8462 16.6154H10.1538C9.92308 16.6154 9.69231 16.4769 9.69231 16.2V15.2769C9.69231 15.0462 9.87693 14.7692 10.1538 14.7692C10.3846 14.7692 10.6154 14.6308 10.6154 14.3539V12.5077C10.6154 12.2769 10.4308 12 10.1538 12C9.92308 12 9.69231 11.8616 9.69231 11.5846V10.6616C9.69231 10.4308 9.87693 10.1539 10.1538 10.1539H12.9231C13.1538 10.1539 13.3846 10.3846 13.3846 10.6616V14.3539C13.3846 14.5846 13.5692 14.7692 13.8462 14.7692C14.0769 14.7692 14.3077 15 14.3077 15.2769V16.2Z" fill="white"/>
</svg>
