
<svg width="24" height="24" viewBox="0 0 24 24" fill="none" xmlns="http://www.w3.org/2000/svg">
<path fill-rule="evenodd" clip-rule="evenodd" d="M12 0.92308C5.86154 0.92308 0.92308 5.86154 0.92308 12C0.92308 18.1385 5.86154 23.0769 12 23.0769C18.1385 23.0769 23.0769 18.1385 23.0769 12C23.0769 5.86154 18.1385 0.92308 12 0.92308ZM18.1846 9.23077L11.1231 16.3846C10.8462 16.6615 10.3846 16.6615 10.1077 16.3846L6.23077 12.4615C5.95385 12.1846 5.95385 11.7231 6.23077 11.4462L7.24616 10.4308C7.52308 10.1538 7.98462 10.1538 8.26154 10.4308L10.2923 12.5077C10.4769 12.6923 10.8 12.6923 10.9846 12.5077L16.1539 7.15385C16.4308 6.87693 16.8923 6.87693 17.1692 7.15385L18.1846 8.16923C18.5077 8.44616 18.5077 8.9077 18.1846 9.23077Z" fill="white"/>
</svg>
