
<svg width="24" height="24" viewBox="0 0 24 24" fill="none" xmlns="http://www.w3.org/2000/svg">
<path fill-rule="evenodd" clip-rule="evenodd" d="M14.5154 11.9308L20.5154 5.88461C20.7923 5.60769 20.7923 5.19231 20.5154 4.91538L19.5923 3.94615C19.3154 3.66923 18.9 3.66923 18.6231 3.94615L12.5769 9.99231C12.3923 10.1769 12.1154 10.1769 11.9308 9.99231L5.88461 3.9C5.60769 3.62308 5.19231 3.62308 4.91538 3.9L3.94615 4.86923C3.66923 5.14615 3.66923 5.56154 3.94615 5.83846L9.99231 11.8846C10.1769 12.0692 10.1769 12.3462 9.99231 12.5308L3.9 18.6231C3.62308 18.9 3.62308 19.3154 3.9 19.5923L4.86923 20.5615C5.14615 20.8385 5.56154 20.8385 5.83846 20.5615L11.8846 14.5154C12.0692 14.3308 12.3462 14.3308 12.5308 14.5154L18.5769 20.5615C18.8538 20.8385 19.2692 20.8385 19.5462 20.5615L20.5154 19.5923C20.7923 19.3154 20.7923 18.9 20.5154 18.6231L14.5154 12.5769C14.3308 12.3923 14.3308 12.1154 14.5154 11.9308Z" fill="white"/>
</svg>
