
<svg width="24" height="24" viewBox="0 0 24 24" fill="none" xmlns="http://www.w3.org/2000/svg">
<path fill-rule="evenodd" clip-rule="evenodd" d="M23.7024 19.6154L13.1331 2.53847C12.5793 1.61539 11.3793 1.61539 10.8255 2.53847L0.256222 19.6154C-0.389932 20.6769 0.256222 22.1539 1.41007 22.1539H22.5485C23.7024 22.1539 24.3947 20.6769 23.7024 19.6154ZM11.9793 18.4615C11.1947 18.4615 10.5947 17.8615 10.5947 17.0769C10.5947 16.2923 11.1947 15.6923 11.9793 15.6923C12.7639 15.6923 13.3639 16.2923 13.3639 17.0769C13.3639 17.8615 12.7639 18.4615 11.9793 18.4615ZM13.3639 14.3077C13.3639 14.5846 13.1793 14.7692 12.9024 14.7692H11.0562C10.7793 14.7692 10.5947 14.5846 10.5947 14.3077V8.3077C10.5947 8.03078 10.7793 7.84616 11.0562 7.84616H12.9024C13.1793 7.84616 13.3639 8.03078 13.3639 8.3077V14.3077Z" fill="white"/>
</svg>
