<svg width="24" height="24" viewBox="0 0 24 24" fill="none" xmlns="http://www.w3.org/2000/svg">
<path d="M12 21C16.9706 21 21 16.9706 21 12C21 7.02944 16.9706 3 12 3C7.02944 3 3 7.02944 3 12C3 16.9706 7.02944 21 12 21Z" fill="#0084F4"/>
<path d="M12 16C11.2089 16 10.4355 15.7654 9.77772 15.3259C9.11992 14.8864 8.60723 14.2616 8.30448 13.5307C8.00173 12.7998 7.92252 11.9956 8.07686 11.2196C8.2312 10.4437 8.61216 9.73098 9.17157 9.17157C9.73098 8.61216 10.4437 8.2312 11.2196 8.07686C11.9956 7.92252 12.7998 8.00173 13.5307 8.30448C14.2616 8.60723 14.8864 9.11992 15.3259 9.77772C15.7654 10.4355 16 11.2089 16 12H14.7561C14.7561 11.4549 14.5944 10.922 14.2916 10.4688C13.9888 10.0156 13.5583 9.66232 13.0547 9.45372C12.5511 9.24512 11.9969 9.19054 11.4623 9.29688C10.9277 9.40322 10.4366 9.66572 10.0512 10.0512C9.66572 10.4366 9.40323 10.9277 9.29688 11.4623C9.19054 11.9969 9.24512 12.5511 9.45372 13.0547C9.66232 13.5583 10.0156 13.9888 10.4688 14.2916C10.922 14.5944 11.4549 14.7561 12 14.7561V16Z" fill="white"/>
</svg>
