<svg width="24" height="24" fill="none" xmlns="http://www.w3.org/2000/svg">
<path d="M8.34.024C7.026.16 6.091.415 5.06.918A8.993 8.993 0 0 0 .059 7.992c-.393 3.36 1.18 6.677 4.061 8.568.809.53 2.006 1.029 2.972 1.237a9.01 9.01 0 0 0 9.991-4.857 8.947 8.947 0 0 0 0-7.88A8.921 8.921 0 0 0 12.944.923 8.623 8.623 0 0 0 10.32.101C9.911.039 8.662-.009 8.34.024M9.958 5.12a4.192 4.192 0 0 1 1.864 1.057 4.042 4.042 0 0 1 1.163 2.513l.027.31h-1.24l-.048-.344c-.092-.655-.329-1.138-.785-1.595a2.692 2.692 0 0 0-1.119-.688c-.276-.09-.389-.105-.82-.105-.431 0-.544.015-.82.105-.444.145-.79.358-1.119.688-1.276 1.275-1.011 3.368.545 4.309.301.182.771.337 1.132.374l.262.027v1.241l-.31-.027a4.173 4.173 0 0 1-2.374-1.017 4.278 4.278 0 0 1-1.031-1.496c-.683-1.72-.072-3.728 1.446-4.76.486-.329 1.228-.614 1.789-.687.304-.039 1.106.014 1.438.095" fill="#0084F4" fill-rule="evenodd"/>
</svg>