<svg width="24" height="24" viewBox="0 0 24 24" fill="none" xmlns="http://www.w3.org/2000/svg">
<g clip-path="url(#clip0_323_903)">
<rect width="24" height="24" fill="white"/>
<path d="M12 21C16.9706 21 21 16.9706 21 12C21 7.02944 16.9706 3 12 3C7.02944 3 3 7.02944 3 12C3 16.9706 7.02944 21 12 21Z" fill="#3C76F1"/>
<path d="M17 12C15.6665 14.0001 14 15 12 15C10 15 8.3335 14.0001 7 12C8.3335 9.99986 10 9 12 9C14 9 15.6665 9.99986 17 12Z" fill="white"/>
<path d="M12 13C12.5523 13 13 12.5523 13 12C13 11.4477 12.5523 11 12 11C11.4477 11 11 11.4477 11 12C11 12.5523 11.4477 13 12 13Z" stroke="#3C76F1" stroke-linecap="round" stroke-linejoin="round"/>
</g>
<defs>
<clipPath id="clip0_323_903">
<rect width="24" height="24" fill="white"/>
</clipPath>
</defs>
</svg>